<svg xmlns="http://www.w3.org/2000/svg" xmlns:xlink="http://www.w3.org/1999/xlink" viewBox="0 0 917.96 664.87"><defs><linearGradient id="linear-gradient" x1="73.11" y1="332.44" x2="917.96" y2="332.44" gradientUnits="userSpaceOnUse"><stop offset="0" stop-color="#8861a9"/><stop offset="1" stop-color="#c8b0d5"/></linearGradient><linearGradient id="linear-gradient-2" x1="102.28" y1="104.44" x2="194.09" y2="104.44" xlink:href="#linear-gradient"/><linearGradient id="linear-gradient-3" x1="239.05" y1="182.73" x2="291.93" y2="182.73" xlink:href="#linear-gradient"/><linearGradient id="linear-gradient-4" x1="0" y1="221.83" x2="36.1" y2="221.83" xlink:href="#linear-gradient"/><linearGradient id="linear-gradient-5" x1="68.04" y1="107.17" x2="104.52" y2="107.17" xlink:href="#linear-gradient"/><linearGradient id="linear-gradient-6" x1="191.16" y1="104.99" x2="227.64" y2="104.99" xlink:href="#linear-gradient"/><linearGradient id="linear-gradient-7" x1="543.05" y1="620.43" x2="576.19" y2="620.43" xlink:href="#linear-gradient"/><linearGradient id="linear-gradient-8" x1="349.27" y1="386.77" x2="394.87" y2="386.77" xlink:href="#linear-gradient"/><linearGradient id="linear-gradient-9" x1="408.09" y1="417.88" x2="437.08" y2="417.88" xlink:href="#linear-gradient"/><linearGradient id="linear-gradient-10" x1="375.54" y1="361.32" x2="404.34" y2="361.32" xlink:href="#linear-gradient"/><linearGradient id="linear-gradient-11" x1="308.75" y1="429.9" x2="354.37" y2="429.9" xlink:href="#linear-gradient"/><linearGradient id="linear-gradient-12" x1="298.03" y1="453.87" x2="327.12" y2="453.87" xlink:href="#linear-gradient"/><linearGradient id="linear-gradient-13" x1="370.07" y1="464.88" x2="399.54" y2="464.88" xlink:href="#linear-gradient"/><linearGradient id="linear-gradient-14" x1="218.25" y1="308.3" x2="248.86" y2="308.3" xlink:href="#linear-gradient"/></defs><g id="Layer_2" data-name="Layer 2"><g id="Layer_1-2" data-name="Layer 1"><path d="M788.47,87.61c-7.68-4.54-15.27-9.23-23-13.59C728.37,53.21,688.2,41.75,646.59,34.55a802.43,802.43,0,0,0-98.07-11.28c-51.68-2.51-102.68,2.12-153.34,12.05-3.63.71-5.74,1.94-6.73,6-3.86,15.83-19.45,26-36.11,24.07-15.24-1.78-28-16.19-28.46-32C323.47,17.85,335.31,3.42,350.74.59c14.56-2.67,28.42,3.88,35.05,17.1,2,4.08,4.3,4.93,8.62,4,50.94-10.55,102.51-14.17,154.4-12,45.14,1.88,89.68,8.69,133.76,18.73C736.2,40.65,783.85,64.92,826.39,99.36a285.63,285.63,0,0,1,71.18,84.71c9.7,17.62,14.1,37,17.29,56.58,3.74,22.92,4.4,46.16.32,69.07-9.16,51.42-39,85.23-88.8,101.13a192.43,192.43,0,0,1-44.06,8.26c-2.87.22-4.55,1.21-5.47,4-6.05,18.71-18.93,28.78-38.59,29.92-3.23.19-4.13,2.25-5.06,4.63a76.89,76.89,0,0,1-35.83,40.7c-12.47,6.85-26,10.28-40,11.52-44.36,3.94-88.4,1.73-131.93-8-4-.89-5,.94-6,3.89a369.23,369.23,0,0,1-19.7,49.61c-16.55,34-36.77,65.28-68,88-15,10.94-31.62,18.31-50.14,21.09-16.23,2.44-26.55-6.21-27-22.51a93.31,93.31,0,0,1,3.75-28.59c1.48-5.13,1-5.54-4.2-4.53-26.22,5.07-52.39,5.52-78-2.89-38.94-12.79-67-38-83.43-75.73-2.91-6.7-4.38-14-5.42-21.24-.54-3.71-2.09-5.35-5.7-6.3C160,497,140.57,487,125.08,470.54c-19.75-21-29.36-46.05-28.15-75,.22-5.3-.46-8.65-6.08-11.23C77,378,70.38,362.21,74.17,346.92c3.47-14,17.56-24.81,32.13-24.61A33.53,33.53,0,0,1,138,348.1a32.54,32.54,0,0,1-21.21,38.19c-5,1.66-6.65,4-6.72,9.25-.65,46.32,27.7,79.85,71.14,92.83,2.84.85,4.6,1.17,4.74-2.89,1-28.86,9-56,20.07-82.48,2.31-5.53,4.58-11.09,7.29-16.42,1.61-3.15,1-5-1.55-7.22a58.84,58.84,0,0,1-20-36.4c-2.22-14.92,1.24-28.48,9.59-40.78,2.48-3.63,2.19-5.79-.82-8.9-9.49-9.8-18.64-19.93-27.9-29.95a28.86,28.86,0,0,1-2.45-3.15c-2.4-3.44-2-6.75,1.16-9.31s6.69-1.94,9.39,1c6.54,7.09,12.87,14.38,19.38,21.5,3.82,4.18,7.86,8.15,11.7,12.31,1.66,1.8,3.1,1.89,5.17.54,18.27-11.92,37.53-13.46,57.58-5,2.89,1.21,4.54.4,6.34-1.89a492.54,492.54,0,0,1,51.65-56.19,512,512,0,0,1,104.15-75.24,457.65,457.65,0,0,1,44.82-22c3.12-1.3,4-2.74,1.46-5.35-.58-.6-1.11-1.25-1.63-1.89-3.49-4.34-3.61-8.42-.32-11s7.26-1.54,10.8,2.63c8.82,10.36,5.83,8.51,17.16,4.31A548,548,0,0,1,641.79,83.22a511.67,511.67,0,0,1,72.26-2.61,453.62,453.62,0,0,1,70.85,7.72c1,.19,1.92.35,2.88.52ZM373.93,410.82c-1.43,4.54,1.58,7.3,5.76,9.51a63,63,0,0,1,7.7,4.62c3.52,2.56,6.72,3,11,1.27a15.51,15.51,0,0,1,21.11,12.16c.52,3.88,2.16,6,5.47,7.44a47.44,47.44,0,0,1,7,3.84c3.49,2.35,5.48,1.29,7.46-2.15,18.25-31.76,37.63-62.82,58.63-92.83,2-2.86,1.79-4.66-.41-7.33-7.75-9.37-12.26-20.7-7.8-32,4.16-10.58.35-16.61-6.55-22.87a9.42,9.42,0,0,1-.69-.72c-6.76-7.58-13-15.58-19-23.76-3.17-4.32-2.18-9.25,1.94-11,3.9-1.64,6.59.17,9,3.26,7.82,10.15,15.67,20.27,24.34,29.73,2.27,2.47,3.94,3,7.11.93,11.55-7.46,23.9-8.91,36.53-2.85,3.66,1.76,5.62,1.26,8.33-1.89,14.53-16.9,29.53-33.4,46.32-48.14,5.63-4.94,5.63-5-.47-9.63A694.38,694.38,0,0,1,535.87,176c-12.53-12.17-25.18-24.24-36.65-37.46-2.25-2.6-4.33-4-8.11-2.35a585,585,0,0,0-52.76,26.14,503.71,503.71,0,0,0-90.17,64.89,509.07,509.07,0,0,0-55.67,59.19c-2.33,2.91-2.69,5,.17,8.08,17.92,19.08,21.5,44.15,9.71,67.36-1.45,2.85-1.06,4.49,1.4,6.28q14.74,10.71,29.34,21.62c2.47,1.85,4.4,1.78,7.16.29C356.43,381.33,374,391.85,373.93,410.82ZM319.52,599A160.84,160.84,0,0,0,360,593.61c3-.75,5.5-1.77,6.82-5.09,15.72-39.54,36.05-76.79,56.94-113.75C430,463.84,429.91,464,418.86,458c-3.69-2-6.85-2.82-11.19-1.39-7.53,2.46-16.6-1.75-18.52-9.45-1.63-6.5-5.8-9.16-10.7-11.95-3.18-1.81-6.4-3.59-9.39-5.68-2.38-1.66-4.26-1.51-6.83-.21-16.17,8.23-34-3.38-33.25-21.6a6.84,6.84,0,0,0-3.15-6.66c-9.85-7.11-19.69-14.25-29.27-21.72-3.32-2.59-5.45-2.27-8.55.3-16.65,13.75-35.39,17.75-56.06,11-3.77-1.24-5.68-.61-7.37,3-12.48,27-22.17,54.74-24.86,84.77-3,34,8.1,62.21,32.15,85.58C256.33,587.81,286,599,319.52,599ZM853.24,319.15c2.83,0,5.66.11,8.48,0,2.15-.11,4.29-.54,6.43-.78,22.51-2.61,35.33-21.14,36.71-40.61,1.73-24.51-4.08-47.62-19.41-68-21.77-28.94-50.18-45.2-86.27-47.14-24.8-1.34-49.1,2.83-72.8,10-37.47,11.37-69.18,32.89-99.33,57.08-2.77,2.23-1.85,3.62.52,5.32,12.06,8.6,24.21,17.1,36.94,24.64,24.12,14.27,50.15,24.54,75.88,35.41C776.48,310.29,813.78,319.76,853.24,319.15Zm47.1-.52c-2.22-.28-3,.79-3.85,1.46a55.33,55.33,0,0,1-28.78,11.57c-12,1.13-23.93.54-35.85-.51-14.73-1.3-29.5-2.29-43.9-6.17-29.19-7.86-57.1-19.12-84.63-31.38-16.1-7.17-32.42-14-47.32-23.55-13-8.38-26-16.75-38.47-26-2-1.47-3.78-3.21-6.51-.77a527.76,527.76,0,0,0-51.29,53.06c-2,2.33-1.81,4.16-.33,6.67,6.93,11.76,7.28,24,1.79,36.35-1.4,3.13-.85,4.68,1.8,6.55,11,7.78,22.62,14.67,34.3,21.38,30,17.22,61.66,29.82,95.77,36.1,3.53.65,5.09-.13,6.13-3.6a37,37,0,0,1,16.06-21c23.57-15,52.71-4.37,61.19,22.26,1.24,3.89,2.95,5.44,7.07,4.91,12.38-1.6,24.7-3.45,36.7-7.05,27.92-8.36,51-23.36,66.6-48.55A113.23,113.23,0,0,0,900.34,318.63Zm-280,179.48A255.29,255.29,0,0,0,661.2,496c26.36-3.69,47.21-15.31,58.65-40.63,1.58-3.5,1.55-5.49-2.15-7.62-10.1-5.81-17-14.36-19.48-25.93-.71-3.29-2.42-4.64-5.62-5.23-7.36-1.35-14.72-2.78-22-4.63C628,401.1,589.87,380.63,553.89,355.82c-2.51-1.73-4.39-2.19-7.16-.48-9.55,5.91-19.85,7.52-30.63,4.06-3.35-1.08-5.18-.17-7,2.62-7.46,11.41-15.22,22.64-22.65,34.07-12.42,19.11-24.17,38.64-35.63,58.34-1.33,2.29-1.62,3.66,1.24,5,26.8,12.72,54,24.39,83.09,30.92C563.17,496.66,591.76,497.87,620.39,498.11ZM882.31,185.37c.62-1.7-.43-2.52-1-3.45-14-23.7-31.83-44.3-52.06-62.81-5.54-5.07-10.9-10.25-19-12.16a516.26,516.26,0,0,0-95.76-13.26,471,471,0,0,0-82.64,4,535.45,535.45,0,0,0-118,29.38c-3.73,1.4-5.29,2.57-1.67,5.74.49.43.78,1.08,1.24,1.56,29.91,31.6,61.74,61.08,96.29,87.58,2.63,2,4.27,1.25,6.48-.56A501.45,501.45,0,0,1,658,190.62c41.77-27.43,87.54-41.6,137.57-41.2,28.76.23,54.56,9.34,76.94,27.61C875.8,179.71,879,182.52,882.31,185.37Zm-514.55,452c0,1.17,0,2.33,0,3.5.22,7.91,2.46,10.07,10.21,10.08,6.45,0,12.49-1.78,18.45-3.94,24.57-8.94,43.57-25.27,59.49-45.47,23.58-29.94,39-64.06,50.84-100,1.29-3.92-.14-5.33-3.61-6.46-19-6.16-37.37-14.08-55.35-22.78-4.43-2.14-6.74-1.49-9,2.86-6.53,12.35-13.54,24.45-20.15,36.76-15.35,28.6-30.3,57.41-41.65,87.89C372.44,611.91,367.69,624.07,367.76,637.36ZM205,334.55c-.07,25,19.92,45.41,44.65,45.57,25.32.16,46.11-20.25,46.13-45.3,0-24.59-20.91-45.42-45.66-45.46S205,309.77,205,334.55Z" style="fill:url(#linear-gradient)"/><path d="M194.09,104.9a45.91,45.91,0,1,1-91.81-.88c0-24.94,21.28-45.72,46.68-45.57C174,58.61,194.18,79.43,194.09,104.9Z" style="fill:url(#linear-gradient-2)"/><path d="M291.93,182.91a26.68,26.68,0,0,1-26.56,26.21c-13.8-.06-26.18-12.36-26.32-26.14-.15-14.4,12.14-26.65,26.72-26.64C280.08,156.34,292,168.45,291.93,182.91Z" style="fill:url(#linear-gradient-3)"/><path d="M36.1,221.78c0,9.78-8.72,18.49-18.48,18.43S0,232,0,221.81c0-10.4,7.9-18.41,18.13-18.36C27.75,203.5,36.09,212,36.1,221.78Z" style="fill:url(#linear-gradient-4)"/><path d="M68,102.54c.61-16.15,4.78-32.43,16.85-45.95a35,35,0,0,1,5.6-4.94c1.92-1.4,4.09-2,5.76.14s1.17,4.59-1,6.15c-11,7.87-16.31,19.12-19,31.81-5,24,3,55.09,25.32,66.3,2.33,1.17,3.8,3.07,2.36,5.67s-3.84,2.74-6.43,1.3c-8.08-4.52-14-11.14-18.65-19C71.66,131.66,68.26,118.24,68,102.54Z" style="fill:url(#linear-gradient-5)"/><path d="M221,107.19c-.56-16.8-5-32.12-17.22-44.41a34.4,34.4,0,0,0-9.35-6.56c-2.6-1.27-4.16-3.1-2.61-5.93s4.06-2.6,6.47-1.18A52.66,52.66,0,0,1,219.51,73c10.58,22.85,11,45.9.46,69-3.24,7.13-8.23,12.86-14.05,17.93-1.79,1.56-4,3.26-6,.73s-1.43-5,1.12-7a46.81,46.81,0,0,0,16.14-22.9A67,67,0,0,0,221,107.19Z" style="fill:url(#linear-gradient-6)"/><path d="M559.74,604c8.65.09,16.35,7.71,16.45,16.27s-7.92,16.59-16.71,16.51-16.72-8.12-16.42-16.75S551.14,603.94,559.74,604Z" style="fill:url(#linear-gradient-7)"/><path d="M394.87,400.93a31.36,31.36,0,0,1-.41,3.67c-.35,1.5-1,3.09-2.92,2.67-1.59-.35-1.53-1.86-1.47-3.28.7-17.21-10-30.37-27-33.26a23.28,23.28,0,0,0-8.88.54c-1.73.36-4.37,2.05-4.91-1-.44-2.57,2.37-2.77,4.23-3.25,8.72-2.23,16.56.53,23.72,5C387.87,378.7,394,388.36,394.87,400.93Z" style="fill:url(#linear-gradient-8)"/><path d="M436.45,428.56c-1.49.24-1.91-1-2.45-2-5.15-9.06-12.65-14.78-23.08-16.45-1.16-.19-3.14.16-2.8-1.86.24-1.39,1.87-1.08,3-1.06,9.2.13,23.38,10.85,25.87,19.55A1.5,1.5,0,0,1,436.45,428.56Z" style="fill:url(#linear-gradient-9)"/><path d="M377.72,350.51c11.9,2,20.53,8,25.92,18.43.51,1,1.33,2.38-.08,3s-1.89-1-2.4-1.91c-4.9-9.28-12.67-14.58-22.81-16.69-1.13-.23-3.07.09-2.79-1.93C375.74,350.2,377.14,350.63,377.72,350.51Z" style="fill:url(#linear-gradient-10)"/><path d="M343.65,450.21c-18.36-.11-35.45-17.4-34.89-35.31a21.14,21.14,0,0,1,.25-3c.2-1.21.79-2.36,2.16-2.33,1.76,0,2,1.45,1.95,2.87a32.34,32.34,0,0,0,.42,9.41C317,436.69,333.81,450,350.3,445.13c1.41-.43,3.17-1.13,3.88.79.79,2.17-1.07,2.83-2.65,3.42C349,450.29,346.31,450.21,343.65,450.21Z" style="fill:url(#linear-gradient-11)"/><path d="M325,464.71c-12.09-1.87-20.68-7.95-26.19-18.34-.53-1-1.34-2.35-.1-3.12,1.41-.88,2,.65,2.5,1.61,5,9.5,12.86,14.89,23.27,16.88,1.15.22,3,.13,2.61,2.11C326.82,465,325.48,464.75,325,464.71Z" style="fill:url(#linear-gradient-12)"/><path d="M396.53,475.73c-11.45-2.17-20.36-7.87-25.66-18.53-.48-1-1.49-2.34-.1-3.07s2,.82,2.48,1.8c5.14,9.64,13.24,15.08,23.87,17,1.05.19,2.73.11,2.38,1.79C399.18,476.23,397.66,475.75,396.53,475.73Z" style="fill:url(#linear-gradient-13)"/><path d="M248.86,300.76a5.41,5.41,0,0,1-3.77,4.82,38.48,38.48,0,0,0-17.37,12.88c-2,2.59-4.65,3.37-7.38,1.18s-2.67-4.9-.6-7.48c5.82-7.24,12.68-13.16,21.69-16.11C245.34,294.76,248.92,297.09,248.86,300.76Z" style="fill:url(#linear-gradient-14)"/></g></g></svg>